<svg version="1" xmlns="http://www.w3.org/2000/svg" width="868" height="868" viewBox="0 0 651.000000 651.000000"><path d="M473.9 25.4c-.2.2-5.8.7-12.4 1-6.6.3-13.1.8-14.5 1-1.4.2-4.7.8-7.5 1.2-2.7.4-5.4.8-6 1-7.5 1.8-10.8 2.3-11.5 1.9-.4-.3-1-.2-1.2.2-.1.5-4.8 2.3-10.3 4.1-14.2 4.8-27.1 10.8-38.1 17.8-3 1.9-5.4 3.1-5.4 2.7 0-.4-.5-.1-1 .8s-2.8 2.9-5.2 4.5c-6.4 4.3-10.1 7.6-23.1 20.6l-11.9 11.7-13.6-13.7c-7.5-7.5-13.8-13.4-13.8-13.2-.1.3-1.7-.8-3.5-2.3-6.4-5.4-22.4-15.4-31.9-20-27.1-13.1-50.3-18.2-83-18.2-22.8.1-28 .6-45 4.6-22.2 5.2-45.6 16-61.5 28.3-2.2 1.7-4.4 3.4-5 3.8-13 9.7-30.9 29.4-41 45.3-12.1 18.9-22.5 48.1-25 70-.3 2.7-.8 6.6-1 8.5-.5 4-.5 33-.1 37.5.7 6.6 1.8 16.1 2.2 18 .2 1 .6 3.5.9 5.5.3 2 .7 4.5 1 5.5 7.6 34.2 19 59.9 40.3 90.5 2.5 3.6 5.5 7.8 6.6 9.5 1.2 1.6 2.3 3.2 2.6 3.5.3.3 4.9 5.9 10.2 12.5 5.3 6.6 10.8 13.3 12.3 15 1.4 1.6 4.5 5.2 6.8 7.9 7 8.1 6.4 7.5 24.2 27.1 1.5 1.6 7.3 7.9 12.9 13.9 5.5 6 10 11.3 9.8 11.8-.1.5.1.7.6.4 1-.6 6.8 5.4 6.4 6.6-.1.5.1.7.6.6.4-.2 6.8 5.8 14.3 13.2 12.4 12.3 25.8 25.1 45.8 43.6 4.1 3.8 8.8 8.2 10.5 9.9 1.8 1.6 9 8.4 16.1 15 7.1 6.6 14.3 13.3 16 14.8 1.6 1.6 7.2 6.8 12.4 11.5 5.2 4.8 10.8 10 12.6 11.7 1.7 1.6 6.9 6.4 11.5 10.5s10.7 9.6 13.4 12.2c2.8 2.5 6 5.5 7.2 6.5 3 2.6 18 16.1 22.8 20.5 2.3 2.1 4.5 3.4 5.2 3 1-.6 7.1-6 18.5-16.3 7.1-6.5 10.9-10 16.4-14.8 3.3-3 10.7-9.7 16.4-15 5.7-5.3 11.3-10.4 12.5-11.4 1.1-1 6.8-6.3 12.6-11.7 5.8-5.3 12.1-11.2 14-13 1.9-1.7 8.7-8 15-13.9 6.3-5.9 14.6-13.7 18.4-17.2 3.8-3.5 9.3-8.7 12.2-11.4 2.8-2.8 10.7-10.2 17.4-16.5 6.7-6.3 14.5-13.7 17.3-16.5 2.8-2.7 5.5-4.9 6-4.7.4.1.6-.1.3-.6s1.2-2.4 3.2-4.3c5.8-5.5 34.9-36.3 42.9-45.5 3.1-3.6 13.7-15.6 14.8-16.8.6-.6 3.9-4.5 7.5-8.6s6.7-7.7 7-8c3.6-3.4 34-44 34-45.4 0-.2 2.2-4 4.9-8.3 4.4-7.2 10.4-18.1 10.6-19.3 0-.3.5-1.2 1-2s1.5-2.9 2.1-4.5c.7-1.7 2.9-7.3 4.9-12.5 3.9-10.1 9.9-32.1 11-40.5.3-2.8.8-5.9 1-7 3.1-14 2.5-55-1-71.9-3.2-15.8-8.4-31.1-14.8-44.1-4-8.2-14.4-24.6-19.2-30.4-27.5-33-59.2-53.3-97-62.1-4.4-1-9.8-2.1-12-2.4-2.3-.4-5.2-.9-6.5-1.1-1.4-.3-7-.8-12.4-1.1-5.5-.3-10.3-.7-10.6-.9-.4-.3-.9-.3-1.1-.1z"/></svg>