<?xml version="1.0" standalone="no"?>
<!DOCTYPE svg PUBLIC "-//W3C//DTD SVG 20010904//EN"
 "http://www.w3.org/TR/2001/REC-SVG-20010904/DTD/svg10.dtd">
<svg version="1.0" xmlns="http://www.w3.org/2000/svg"
 width="700.000000pt" height="700.000000pt" viewBox="0 0 700.000000 700.000000"
 preserveAspectRatio="xMidYMid meet">
<g transform="translate(0.000000,700.000000) scale(0.100000,-0.100000)"
fill="#000000" stroke="none">
<path d="M1848 6315 c-2 -1 -37 -5 -78 -9 -620 -52 -1148 -458 -1405 -1081
-33 -79 -90 -246 -100 -292 -57 -265 -73 -401 -69 -598 2 -82 5 -166 8 -185
59 -367 249 -755 582 -1190 34 -43 234 -282 273 -325 142 -156 567 -569 706
-686 22 -19 45 -39 50 -45 10 -11 303 -256 361 -301 16 -13 65 -51 109 -86 73
-58 269 -207 327 -249 12 -9 54 -40 91 -68 109 -80 416 -293 576 -397 80 -52
158 -104 173 -114 15 -10 32 -19 38 -19 18 0 411 261 650 431 481 344 889 671
1275 1023 100 90 453 442 510 507 244 278 343 403 480 609 159 239 248 413
318 620 65 193 82 295 82 500 0 187 -6 255 -41 445 -38 211 -151 506 -264 690
-144 235 -361 457 -570 582 -208 125 -458 206 -710 230 -135 12 -352 7 -451
-12 -193 -37 -351 -92 -489 -169 -25 -14 -58 -33 -75 -42 -79 -44 -240 -171
-336 -265 -118 -115 -282 -331 -351 -462 l-26 -48 -51 93 c-65 117 -63 114
-145 226 -125 170 -327 357 -491 454 -180 107 -412 192 -580 213 -27 3 -64 8
-81 11 -30 6 -291 13 -296 9z"/>
</g>
</svg>
