<svg version="1" xmlns="http://www.w3.org/2000/svg" width="933.333" height="933.333" viewBox="0 0 700.000000 700.000000"><path d="M150.9 47.4c-.2.3-3.1.7-6.4 1.1-3.3.3-6.8.9-7.7 1.1-.9.3-2.5.7-3.5.9-33.1 7.2-64.2 26.3-88.1 54-13 15.1-28.1 42.4-34.7 63-3.9 12.2-8.2 32.2-9.3 43-.9 9-.8 40.3.1 47.8 5.4 44.9 21.6 86.5 49.4 126.5 7.6 10.9 23.4 30.7 32.4 40.7 15.8 17.4 44.5 45.1 65.5 63.2 1.2 1 5 4.3 8.5 7.3 19.9 17.3 17.4 15.2 39.2 33.3 16 13.4 61.6 50.6 71.1 58.2 2.1 1.6 5.2 4.2 7 5.6 2.9 2.5 15.4 12.5 24.2 19.4 2.1 1.6 6.6 5.2 10 8 3.4 2.7 7.9 6.3 10 8 2.1 1.6 9.5 7.5 16.4 13 6.9 5.6 13.1 10.4 13.8 10.9 1.1.7 5.4-2.3 17.2-12.1.8-.7 14.8-11.9 31-24.8 16.2-13 30.4-24.4 31.5-25.3 1.1-.9 4.3-3.5 7-5.7 2.8-2.2 6.6-5.3 8.6-7 4.9-4.1 10.3-8.5 25.3-20.5 1-.8 2.6-2.2 3.6-3.1.9-.8 3.9-3.3 6.7-5.5 4.5-3.5 28.1-23.1 29.3-24.4.3-.3 4.6-3.9 9.5-8 10.5-8.8 13.4-11.1 14.9-12.5.6-.6 4.9-4.3 9.6-8.4 24-20.8 30.5-26.8 48.4-44.1 7.1-6.9 13.4-13 14-13.6 3.1-3 17.1-18.8 24.9-28.2 23.1-27.8 38.6-53.2 51.7-84.7 1.9-4.7 5.6-15.1 6.5-18.5.1-.3.5-1.2.8-2 1.4-3.2 5.7-22 7.1-30.5.8-5 1.8-10.6 2.1-12.5 1-5.5 1.3-40.9.5-47.5-.4-3.3-1.1-8.5-1.4-11.5-.4-3-.9-6.3-1.2-7.2-.5-1.7-1.1-4.3-1.9-8.8-.7-3.8-6.5-23.1-7.9-26.5-13.8-32-25.6-49.8-46-69.1-23.5-22.5-54.9-37.6-87.1-42-10.3-1.5-39.1-.9-48.5.9-4.7.9-9.7 1.8-11.2 2.1-4.3.7-19.6 5.5-28.1 8.7-35.4 13.4-66.5 34.6-100 68.1L349.9 144l-16.2-16.3C280.2 74 225.6 47.5 167.6 47.1c-9 0-16.5.1-16.7.3z"/></svg>